#!OML:ASF I:\Random Stuff\random\construction\7_22_03\Session 2\subj1.ASF
:FULLY-SPECIFIED
:DEGREES
776
root 6.24771 17.6804 -10.462 10.0209 -52.2944 -2.25769
lowerback 6.71121 -2.92855 3.11791
upperback 0.819547 -3.64411 1.1902
thorax -3.02734 -1.84783 -0.178582
lowerneck -25.5376 7.3027 4.97118
upperneck 40.057 7.24026 2.15747
head 20.1448 3.64211 1.88682
rclavicle 1.62183e-013 -3.96575e-014
rhumerus -61.8306 20.1512 -74.1181
rradius 122.745
rwrist -38.0519
rhand -21.7638 24.0733
rfingers 7.12502
rthumb 4.63687 -5.85599
lclavicle 1.62183e-013 -3.96575e-014
lhumerus -5.04705 -13.136 80.0267
lradius 53.1434
lwrist -1.58339
lhand -33.8253 52.2998
lfingers 7.12502
lthumb -7.01092 -277.836
rfemur -11.656 4.83117 22.8088
rtibia 12.6265
rfoot -7.59481 -4.20877
rtoes -25.4001
lfemur -20.5871 -8.88384 -8.4976
ltibia 22.6306
lfoot -21.2301 26.5837
ltoes -5.05755
777
root 6.21446 17.6889 -10.5284 9.82787 -52.4262 -1.90282
lowerback 6.7036 -2.96193 3.28578
upperback 0.824367 -3.67615 1.21442
thorax -3.02796 -1.86562 -0.244249
lowerneck -25.2382 7.43588 5.35909
upperneck 39.9218 7.4065 1.85917
head 20.027 3.72701 1.69641
rclavicle 5.48646e-014 -1.80894e-014
rhumerus -61.7447 20.0809 -73.905
rradius 122.571
rwrist -37.8185
rhand -21.5654 23.9883
rfingers 7.12502
rthumb 4.82846 -5.9367
lclavicle 5.48646e-014 -1.80894e-014
lhumerus -6.08885 -9.8811 80.1525
lradius 54.3413
lwrist 1.29574
lhand -34.5739 55.2346
lfingers 7.12502
lthumb -7.73354 -274.927
rfemur -11.662 5.09525 22.8022
rtibia 12.3372
rfoot -7.39356 -4.30428
rtoes -25.3762
lfemur -20.6528 -8.94626 -8.50549
ltibia 22.7154
lfoot -21.4769 26.288
ltoes -6.33666
778
root 6.18176 17.7006 -10.5896 9.56605 -52.5464 -1.49746
lowerback 6.685 -2.99954 3.25233
upperback 0.851165 -3.72671 1.36873
thorax -2.97895 -1.8895 -0.0641674
lowerneck -25.4959 7.71513 5.03439
upperneck 40.1851 7.87187 2.13093
head 20.2274 3.8845 2.02345
rclavicle -4.57205e-015 -3.04141e-014
rhumerus -61.5112 20.0981 -73.477
rradius 122.41
rwrist -37.7355
rhand -21.4759 23.869
rfingers 7.12502
rthumb 4.9148 -6.05398
lclavicle -4.57205e-015 -3.04141e-014
lhumerus -7.19529 -6.5653 80.364
lradius 55.7446
lwrist 4.12399
lhand -35.0105 57.5609
lfingers 7.12502
lthumb -8.15491 -272.616
rfemur -11.6184 5.34073 22.7466
rtibia 12.0465
rfoot -7.2073 -4.36706
rtoes -25.1196
lfemur -20.7046 -8.4085 -8.67063
ltibia 22.8315
lfoot -20.7289 25.3654
ltoes -10.0854
779
root 6.14946 17.7147 -10.6465 9.22432 -52.6639 -1.0517
lowerback 6.68372 -2.99315 3.30897
upperback 0.876386 -3.71434 1.40082
thorax -2.95325 -1.88359 -0.0647684
lowerneck -25.3291 7.65488 5.32249
upperneck 40.198 7.82892 1.71048
head 20.244 3.84923 1.75032
rclavicle -5.98342e-014 4.13472e-014
rhumerus -61.4005 19.9883 -73.1687
rradius 122.319
rwrist -37.8102
rhand -21.3704 23.6364
rfingers 7.12502
rthumb 5.01672 -6.28424
lclavicle -5.98342e-014 4.13472e-014
lhumerus -8.39784 -3.87417 80.3619
lradius 57.3793
lwrist 7.47647
lhand -35.6958 60.482
lfingers 7.12502
lthumb -8.81628 -450.278
rfemur -11.5123 5.50596 22.6596
rtibia 11.7436
rfoot -7.03464 -4.31431
rtoes -24.7885
lfemur -20.6944 -7.17157 -9.00688
ltibia 22.9956
lfoot -19.5106 23.5305
ltoes -12.9507
780
root 6.11835 17.7276 -10.7022 8.8937 -52.7206 -0.655684
lowerback 6.71286 -2.92978 3.46232
upperback 0.877031 -3.61852 1.36347
thorax -2.97808 -1.83797 -0.195875
lowerneck -25.4949 7.72781 4.97469
upperneck 40.4123 7.83579 2.29481
head 20.3586 3.87979 2.11785
rclavicle -3.08116e-015 -9.14409e-015
rhumerus -61.4745 19.737 -72.9684
rradius 122.29
rwrist -37.8097
rhand -21.5282 23.3788
rfingers 7.12502
rthumb 4.86432 -6.5454
lclavicle -3.08116e-015 -9.14409e-015
lhumerus -9.59221 -1.66725 80.3705
lradius 58.8933
lwrist 10.8568
lhand -36.5241 63.4979
lfingers 7.12502
lthumb -9.61549 -453.258
rfemur -11.3746 5.71028 22.5985
rtibia 11.4492
rfoot -6.81818 -4.37348
rtoes -24.4734
lfemur -20.6485 -5.99368 -9.33489
ltibia 23.2262
lfoot -18.4382 21.5511
ltoes -14.6331
